<svg width="19" height="15" viewBox="0 0 19 15" fill="none" xmlns="http://www.w3.org/2000/svg">
<path d="M5.89971 14.4867L0.485795 8.73745C0.161931 8.41988 -1.29428e-06 7.98731 -1.25264e-06 7.51095C-1.21099e-06 7.03459 0.161931 6.6075 0.485795 6.28445L5.89972 0.513325C6.54205 -0.171106 7.58921 -0.171106 8.23153 0.513325C8.87386 1.19776 8.87386 2.3038 8.23153 2.98823L5.62983 5.74786L17.3429 5.74786C18.2605 5.74786 19 6.53085 19 7.5C19 8.46916 18.2605 9.25215 17.3483 9.25215L5.63523 9.25214L8.23693 12.0118C8.87926 12.6962 8.87926 13.8022 8.23693 14.4867C7.5892 15.1711 6.54744 15.1711 5.89971 14.4867Z" fill="black"/>
</svg>
