<svg width="313" height="313" viewBox="0 0 313 313" fill="none" xmlns="http://www.w3.org/2000/svg">
    <path fillRule="evenodd" clipRule="evenodd" d="M136.687 133.745C136.468 134.167 135.827 138.44 138.346 138.44C138.786 138.441 139.212 138.283 139.546 137.996C139.879 137.708 140.098 137.31 140.162 136.875C140.694 132.086 137.564 132.102 136.687 133.745ZM159.38 133.682C159.521 135.341 159.708 136.812 161.367 136.812C161.808 136.813 162.233 136.655 162.567 136.368C162.9 136.081 163.119 135.683 163.183 135.247C163.217 134.24 163.106 133.234 162.854 132.258C161.946 130.584 159.145 130.99 159.38 133.682ZM148.425 148.8C148.91 148.8 153.12 148.597 154.106 147.83C154.403 147.611 154.372 147.188 154.372 146.797C154.278 142.358 153.849 137.932 153.089 133.557C153.089 133.322 152.885 133.275 152.76 133.307C152.635 133.338 152.572 133.557 152.588 133.933C152.588 135.216 152.478 135.654 152.932 142.837C153.229 147.532 153.104 146.218 153.198 147C151.73 147.538 150.224 147.962 148.691 148.268C147.674 148.487 148.394 148.8 148.425 148.8ZM153.37 159.63C152.209 160.252 150.929 160.621 149.614 160.71C149.548 160.71 149.484 160.736 149.437 160.783C149.39 160.83 149.364 160.894 149.364 160.96C149.364 161.027 149.39 161.09 149.437 161.137C149.484 161.184 149.548 161.211 149.614 161.211C150.349 161.475 151.135 161.57 151.912 161.489C152.689 161.408 153.438 161.152 154.103 160.742C154.768 160.331 155.331 159.776 155.752 159.117C156.172 158.459 156.439 157.714 156.532 156.938C156.54 156.906 156.542 156.873 156.537 156.841C156.532 156.808 156.521 156.777 156.505 156.748C156.488 156.72 156.466 156.695 156.44 156.675C156.413 156.656 156.383 156.641 156.352 156.633C156.32 156.625 156.287 156.623 156.254 156.627C156.221 156.632 156.19 156.643 156.162 156.66C156.133 156.676 156.109 156.699 156.089 156.725C156.069 156.751 156.055 156.781 156.046 156.813C155.413 157.967 154.491 158.938 153.37 159.63ZM83.2269 38.9371C87.249 52.3805 101.475 51.7232 103.134 52.7248C103.134 52.8813 106.389 65.4169 107.704 67.1384C108.439 68.0931 110.208 67.7175 111.381 67.4984C114.136 66.9506 117.328 66.7785 119.66 64.9161C120.255 64.431 119.911 62.4591 119.754 61.7861C119.256 58.9722 118.566 56.1956 117.688 53.476C117.343 52.6555 117.05 51.8139 116.812 50.9563C117.892 49.9996 119.066 49.1554 120.317 48.4367C122.382 47.0299 124.219 45.3146 125.764 43.3504C128.752 38.9727 130.103 33.6824 129.579 28.4079C129.055 23.1335 126.69 18.2121 122.9 14.5075C111.303 3.12994 90.332 6.83899 83.5243 21.19C81.1924 26.1667 81.6463 33.71 83.2269 38.9371ZM118.94 64.1649C116.859 65.8395 113.791 66.0586 111.115 66.6063C110.395 66.7628 108.689 67.1854 108.236 66.6063C107.35 65.3281 106.713 63.8947 106.358 62.3808C110.412 61.8095 114.377 60.7262 118.158 59.1569C118.669 60.7773 118.933 62.4657 118.94 64.1649ZM117.986 58.5153C113.987 59.2606 110.06 60.3497 106.248 61.7705C105.844 59.9541 105.321 58.1662 104.683 56.4182C108.726 55.9947 112.692 55.0152 116.468 53.5073C117.099 55.1616 117.622 56.8554 118.033 58.5779L117.986 58.5153ZM84.5102 21.6752C91.0676 8.12229 111.115 4.69494 122.07 15.4152C125.631 18.9076 127.858 23.5351 128.367 28.4966C128.876 33.458 127.634 38.4413 124.856 42.5836C122.148 46.4022 116.671 49.0314 115.826 50.4086C115.529 50.8937 116.076 52.1301 116.421 53.0065C114.636 53.3508 112.68 53.7733 110.927 54.1646C110.458 52.0205 108.267 43.3661 107.453 41.3316C107.14 40.5178 106.858 40.5804 106.029 40.8151C101.459 40.8151 96.4355 39.657 94.8236 35.3533C94.6288 34.8488 94.4923 34.3237 94.4167 33.7883C94.1976 31.5347 95.9817 28.9055 97.9536 29.0933C97.6719 30.8148 97.9536 34.1013 99.4247 35.0872C100.896 36.0732 102.555 34.5082 102.555 33.0997C102.471 32.084 102.141 31.104 101.593 30.2449C101.045 29.3858 100.295 28.6735 99.409 28.1699C99.655 27.6112 100.02 27.1127 100.478 26.709C100.935 26.3052 101.476 26.0058 102.061 25.8316C102.646 25.6575 103.262 25.6126 103.866 25.7002C104.47 25.7878 105.048 26.0057 105.559 26.3389C104.323 28.749 105.559 34.2734 107.75 32.9745C109.941 31.6755 109.222 28.4829 107.86 26.7145C107.203 25.8537 107.062 26.0885 107.391 25.8381C109.941 23.9757 112.837 26.1354 114.057 28.9681C115.81 32.8649 112.054 37.6695 109.675 39.1249C109.617 39.1602 109.576 39.2171 109.559 39.2832C109.543 39.3492 109.554 39.419 109.589 39.4771C109.625 39.5352 109.682 39.5769 109.748 39.593C109.814 39.6092 109.883 39.5984 109.941 39.5631C112.852 37.8573 116.53 32.8336 114.856 28.6081C113.181 24.3826 108.971 22.755 106.311 25.2747C105.641 24.815 104.876 24.5116 104.074 24.3866C103.271 24.2616 102.45 24.3184 101.672 24.5527C100.894 24.7869 100.179 25.1928 99.5787 25.7403C98.9784 26.2878 98.5086 26.9629 98.204 27.7161C95.2931 27.3405 92.836 30.7365 93.1647 33.8196C93.3415 35.1822 93.8565 36.479 94.663 37.5915C95.4694 38.7041 96.5414 39.5971 97.7814 40.1891C99.2525 40.8934 104.48 42.1767 106.545 41.582C107.265 43.147 109.879 52.3335 110.348 54.2585C103.4 55.8235 104.808 56.559 104.464 55.5418C104.057 54.2741 103.807 52.4118 103.462 52.2866C94.8236 50.3303 87.0299 48.8905 84.119 38.6398C82.6948 33.6787 82.3192 26.3232 84.5102 21.6752ZM99.0334 29.4063C99.6265 29.8271 100.122 30.3705 100.487 30.9996C100.851 31.6288 101.076 32.329 101.146 33.0527C101.146 33.4753 100.192 34.6177 99.5812 33.3657C99.1139 32.1016 98.9478 30.7459 99.096 29.4063H99.0334ZM106.42 27.0118C107.672 28.2325 108.455 31.0808 107.093 31.9103C106.621 31.1964 106.316 30.3855 106.199 29.5376C106.083 28.6898 106.158 27.8266 106.42 27.0118ZM59.4702 86.7479C65.8398 84.7603 73.5552 86.4818 76.5287 93.5243C81.6776 105.45 68.0621 111.522 68.2029 112.148C68.5159 113.713 69.0793 116.452 69.3141 118.032C69.3328 118.165 69.4034 118.285 69.5106 118.366C69.6177 118.446 69.7525 118.481 69.8853 118.463C70.0181 118.444 70.1381 118.373 70.2188 118.266C70.2995 118.159 70.3344 118.024 70.3157 117.891C70.1279 116.326 69.9244 114.073 69.7053 112.445C71.9181 111.558 73.9655 110.304 75.7619 108.736C86.8108 95.6997 74.4786 79.2515 58.719 84.4004C56.2236 85.128 54.0165 86.6144 52.404 88.6531C50.7915 90.6919 49.8535 93.182 49.7203 95.7779C49.2195 101.944 54.1336 107.265 62.0681 106.576C62.1877 106.555 62.2961 106.493 62.3742 106.4C62.4522 106.307 62.495 106.189 62.495 106.068C62.495 105.946 62.4522 105.829 62.3742 105.736C62.2961 105.643 62.1877 105.58 62.0681 105.559C55.0256 105.919 51.254 100.864 51.9269 96.0127C52.0828 93.8813 52.8901 91.8494 54.2394 90.1922C55.5887 88.535 57.4147 87.3326 59.4702 86.7479ZM176.36 45.917C176.493 45.9523 176.634 45.9334 176.753 45.8644C176.872 45.7954 176.959 45.6821 176.994 45.5493C177.029 45.4164 177.01 45.275 176.941 45.1562C176.872 45.0373 176.759 44.9507 176.626 44.9154C169.85 43.0061 167.893 37.0122 170.084 32.6145C170.938 30.6505 172.374 28.9963 174.2 27.8765C176.025 26.7567 178.151 26.2253 180.288 26.3545C192.057 26.6519 197.222 37.4817 192.808 45.2128C189.882 50.5025 185.969 51.9266 180.961 52.5839C180.803 52.6062 180.656 52.6793 180.543 52.7922C180.431 52.9052 180.357 53.0518 180.335 53.2099C180.163 54.6497 179.787 57.4824 179.506 59.1256C179.479 59.2564 179.505 59.3925 179.578 59.504C179.652 59.6155 179.766 59.6934 179.897 59.7203C180.028 59.7473 180.164 59.7212 180.275 59.6479C180.387 59.5745 180.465 59.4598 180.492 59.3291C180.852 57.6389 181.337 55.6513 181.665 53.9768C184.043 53.8489 186.382 53.3198 188.583 52.4118C193.888 49.2818 197.112 44.3364 196.689 38.0764C195.703 23.381 174.263 18.1226 168.097 31.8164C165.702 37.3878 168.613 44.1642 176.36 45.917ZM263.311 119.347C263.132 116.446 262.097 113.663 260.338 111.35C258.645 109.445 256.581 107.907 254.272 106.831C251.962 105.754 249.457 105.162 246.91 105.09C244.318 104.97 241.752 105.658 239.568 107.06C237.384 108.462 235.689 110.508 234.719 112.915C232.262 118.596 235.22 125.216 242.935 127.094C243.004 127.125 243.079 127.14 243.154 127.139C243.229 127.138 243.304 127.121 243.372 127.088C243.44 127.055 243.499 127.008 243.547 126.949C243.595 126.891 243.629 126.823 243.648 126.75C243.666 126.677 243.669 126.6 243.655 126.526C243.641 126.452 243.61 126.382 243.566 126.321C243.522 126.26 243.465 126.209 243.4 126.172C243.334 126.135 243.261 126.113 243.186 126.108C236.456 124.073 234.453 118.283 236.66 113.807C237.513 111.843 238.95 110.189 240.775 109.069C242.6 107.949 244.726 107.418 246.863 107.547C249.034 107.607 251.169 108.107 253.141 109.016C255.113 109.925 256.88 111.225 258.335 112.836C259.801 114.75 260.672 117.052 260.839 119.456C261.95 133.26 247.082 133.307 246.942 134.402C246.754 135.967 246.409 138.722 246.112 140.318C246.085 140.449 246.111 140.585 246.185 140.696C246.258 140.808 246.373 140.886 246.503 140.913C246.634 140.94 246.77 140.913 246.882 140.84C246.993 140.767 247.071 140.652 247.098 140.521C247.474 138.847 247.943 136.844 248.272 135.169C250.654 135.035 252.997 134.506 255.205 133.604C260.432 130.537 263.734 125.669 263.311 119.347ZM76.2783 129.895C76.9513 127.109 74.9324 124.183 72.9292 124.417C71.6301 124.277 70.3217 124.24 69.0167 124.308C65.6207 125.122 64.0244 129.566 67.217 131.742C70.8791 134.183 75.621 132.493 76.2783 129.895ZM73.8526 129.582C73.2968 130.046 72.6161 130.334 71.8963 130.411C67.6395 131.006 66.7318 127.281 69.5958 126.061L72.9605 125.435C74.416 125.56 74.7446 128.674 73.8526 129.504V129.582ZM178.207 65.1039C174.56 63.7737 170.617 67.8896 173.199 71.3639C175.781 74.8382 180.899 74.8382 182.37 72.522C183.841 70.2058 182.949 66.7002 180.977 66.262C180.805 66.1838 179.443 65.5578 178.207 65.1039ZM180.179 71.3639C179.479 71.6022 178.729 71.6553 178.002 71.5182C177.275 71.3811 176.597 71.0584 176.031 70.5814C175.569 70.2493 175.189 69.8157 174.92 69.3138C174.466 68.0461 176.094 66.7472 177.283 66.6689L180.664 67.1541C181.978 67.8583 181.321 70.9257 180.179 71.4109V71.3639ZM247.536 147.548C247.223 147.407 245.611 146.734 244.782 146.421C241.12 145.091 237.192 149.207 239.774 152.681C242.356 156.156 247.458 156.156 248.945 153.839C250.432 151.523 249.524 147.986 247.536 147.548ZM246.738 152.728C246.038 152.965 245.288 153.017 244.562 152.88C243.836 152.743 243.157 152.421 242.591 151.946C242.132 151.603 241.753 151.165 241.48 150.662C241.042 149.41 242.653 148.112 243.843 148.033L247.223 148.518C248.538 149.176 247.881 152.227 246.738 152.728Z" fill="black"/>
    <path fillRule="evenodd" clipRule="evenodd" d="M234.75 233.873C231.62 218.474 219.445 194.748 204.827 188.692L201.885 182.541C201.864 182.497 201.834 182.457 201.796 182.425C201.759 182.393 201.715 182.37 201.667 182.357C201.62 182.343 201.57 182.34 201.521 182.348C201.472 182.355 201.426 182.373 201.384 182.401L198.254 184.419C197.26 177.777 194.225 171.607 189.569 166.766C192.824 161.743 198.035 160.209 203.419 159.974C207.879 159.786 211.166 159.52 213.748 155.702C218.866 148.158 217.66 140.803 211.651 133.792C202.496 123.118 198.896 126.311 194.436 120.411C185.954 109.331 184.029 92.9452 171.54 84.4159C155.577 73.6018 146.969 82.3188 143.62 85.0106C138.722 82.0371 127.798 83.07 123.103 87.0921C119.112 90.5038 113.823 94.9171 111.773 99.8468C107.406 110.254 107.876 122.571 101.491 132.008C99.9255 134.355 97.2494 135.936 95.3557 138.158C92.7565 141.417 90.5454 144.967 88.7671 148.737C86.4509 153.119 84.6824 157.987 86.7952 162.525C89.6278 168.597 95.9661 174.388 102.727 173.95C106.639 173.684 111.82 171.336 115.497 172.885C117.688 173.793 118.533 175.906 120.192 177.674C123.948 181.853 132.712 183.12 137.564 180.225C132.227 187.017 124.089 186.783 109.895 194.608C88.1098 206.595 80.1596 220.211 77.8277 234.155C76.9357 238.493 76.2775 242.876 75.8558 247.285C74.5099 270.025 81.4116 298.852 103.791 303.625C109.926 304.94 116.953 305.785 123.025 304.267C134.528 301.403 148.253 293.656 158.331 287.365C163.026 284.439 180.398 272.717 188.473 271.183C188.959 275.36 190.012 279.451 191.603 283.343C198.067 296.63 208.411 304.486 222.903 301.075C232.293 298.868 234.969 288.868 235.22 279.29C239.93 269.18 236.19 241.229 234.75 233.873ZM180.601 160.6C183.387 161.117 185.296 163.73 187.362 165.859C192.824 171.32 196.58 177.173 197.707 184.639C193.184 187.518 190.242 189.333 190.179 189.427C190.116 189.521 187.941 183.981 186.627 183.308C184.66 182.332 182.876 181.024 181.352 179.443C180.179 178.144 178.739 175.859 178.927 174.137C179.759 173.695 180.667 173.413 181.603 173.308V172.338C176.767 172.478 175.108 176.892 174.67 177.878C174.357 178.582 173.919 179.286 172.917 179.177C171.916 179.067 171.556 177.909 171.931 176.876C172.307 175.843 173.214 171.305 179.615 170.319C179.695 170.307 179.773 170.28 179.842 170.239C179.912 170.198 179.973 170.144 180.022 170.079C180.07 170.014 180.106 169.941 180.126 169.862C180.146 169.784 180.151 169.702 180.14 169.622C180.128 169.542 180.101 169.465 180.06 169.395C180.019 169.326 179.965 169.265 179.9 169.216C179.835 169.167 179.762 169.132 179.683 169.112C179.605 169.091 179.523 169.087 179.443 169.098C178.104 169.268 176.805 169.676 175.609 170.303C174.534 170.828 173.579 171.571 172.806 172.484C172.033 173.397 171.458 174.461 171.117 175.608C170.366 177.753 167.737 176.798 168.363 174.951C168.993 173.155 169.93 171.481 171.133 170.006C172.469 168.732 174.073 167.775 175.828 167.204C177.205 166.641 178.379 166.907 178.692 166.453C179.005 165.999 178.269 164.481 177.894 164.027C175.875 161.617 170.069 163.699 167.847 161.007C166.422 159.239 169.412 159.176 170.617 159.019C173.997 158.644 177.205 159.958 180.601 160.6ZM186.345 199.381C181.871 200.839 177.307 202.005 172.682 202.871C174.247 193.966 175.312 186.329 175.155 183.559C178.802 184.263 182.98 184.764 187.55 185.515C188.786 187.565 189.459 189.287 189.757 189.772L186.72 191.697C186.564 191.9 186.595 191.055 186.345 199.381ZM169.349 244.594C170.042 247.599 170.533 250.647 170.82 253.718C164.404 253.311 159.505 253.389 157.095 253.295C157.189 248.897 157.236 247.536 157.314 246.613C161.264 245.611 165.289 244.936 169.349 244.594ZM144.731 206.048C153.61 206.111 162.476 205.388 171.227 203.888C168.441 218.912 164.2 236.972 162.197 240.587C157.596 228.036 158.065 227.989 144.731 206.048ZM163.511 240.384C166.047 234.703 169.897 217.754 172.463 203.638C177.135 202.762 181.741 201.57 186.251 200.069C185.766 216.971 185.625 238.068 186.642 255.017C183.669 254.75 179.349 254.375 175.155 254.046C174.889 251.511 173.84 242.684 172.948 240.368C172.714 239.742 172.432 239.492 171.383 239.46C168.766 239.575 166.161 239.884 163.59 240.384H163.511ZM169.099 180.679C167.513 179.752 166.247 178.366 165.468 176.704C166.192 177.01 166.948 177.235 167.721 177.377C168.015 177.707 168.393 177.95 168.815 178.08C169.238 178.21 169.688 178.221 170.116 178.112C170.82 177.893 170.366 177.799 170.742 178.785C170.886 179.183 171.129 179.536 171.448 179.814C171.767 180.091 172.151 180.283 172.564 180.37C172.978 180.458 173.407 180.439 173.811 180.315C174.215 180.191 174.58 179.966 174.873 179.662C175.484 179.114 175.531 178.457 176.266 177.048C176.986 176.907 177.69 176.72 178.379 176.516C180.241 181.399 186.079 183.762 186.486 184.122C179.615 183.105 173.527 182.463 169.177 180.679H169.099ZM139.097 178.801C142.853 174.45 142.087 171.336 138.221 168.253C130.396 162.118 131.366 163.761 128.08 156.907C124.214 145.78 127.548 128.252 130.412 116.843C131.194 113.713 136.531 110.364 140.412 110.864C145.796 111.553 143.542 114.386 148.143 115.998C148.942 116.231 149.768 116.357 150.6 116.373C150.65 116.389 150.701 116.394 150.753 116.39C150.804 116.385 150.854 116.37 150.9 116.346C150.946 116.322 150.987 116.289 151.02 116.25C151.053 116.21 151.078 116.164 151.093 116.115C151.109 116.066 151.114 116.014 151.11 115.962C151.105 115.911 151.09 115.861 151.066 115.815C151.042 115.769 151.009 115.729 150.97 115.696C150.93 115.662 150.884 115.637 150.835 115.622C148.394 114.158 146.144 112.397 144.137 110.379C145.091 106.482 147.517 104.354 152.071 104.323C155.201 104.323 157.674 106.702 159.896 108.736C162.588 111.193 165.483 117.829 165.264 121.475C164.769 125.7 165.76 129.966 168.066 133.541C169.631 136.264 172.573 138.628 174.326 140.928C175.296 142.211 174.733 147.939 174.169 150.459C173.434 152.666 171.869 156.875 171.509 157.83C164.967 158.065 165.249 161.57 168.379 163.073C165.452 166.578 158.3 170.475 163.418 175.389C164.513 177.69 166.266 180.836 168.613 181.79C170.279 182.465 172.002 182.989 173.762 183.355C174.107 185.781 172.98 193.809 171.258 203.152C162.276 204.647 153.179 205.333 144.074 205.203C138.425 195.953 132.806 187.189 131.382 185.781C134.544 184.173 137.231 181.767 139.176 178.801H139.097ZM128.424 187.049C131.554 185.875 129.989 186.078 130.74 186.657C131.492 187.236 136.656 195.421 142.65 205.14C135.545 205.03 127.548 204.498 124.527 204.154C125.435 203.434 123.088 191.071 122.18 189.506C124.449 188.598 126.546 187.8 128.502 187.049H128.424ZM121.022 189.991C122.309 194.599 123.183 199.313 123.635 204.076C116.882 203.108 110.258 201.392 103.885 198.958C109.346 195.465 115.107 192.464 121.1 189.991H121.022ZM122.446 303.14C116.577 304.611 109.707 303.751 103.791 302.483C94.5419 300.495 88.1411 294.314 83.9782 286.395C77.3582 273.875 75.3863 255.267 77.4052 242.23C77.8121 239.617 78.3285 237.035 78.7667 234.405C81.2551 219.491 90.3164 208.254 102.962 199.756C115.372 204.311 123.714 205.907 143.213 206.016C156.719 227.926 157.017 230.117 160.882 240.838C159.693 241.057 154.184 242.168 153.245 242.935C152.869 243.232 152.869 243.827 153.245 253.232C139.004 253.514 125.075 255.736 111.976 264.187C110.411 252.904 112.211 249.492 115.857 243.029C121.585 232.872 120.552 230.994 116.937 225.219C116.341 224.439 115.915 223.544 115.685 222.59C115.685 222.214 114.12 221.698 116.327 225.579C119.457 231.275 120.302 232.621 114.762 242.403C110.708 249.57 109.049 253.248 111.491 264.516C110.395 265.252 109.143 266.081 107.938 267.051C106.097 268.348 104.37 269.798 102.774 271.386C102.743 271.447 102.737 271.517 102.757 271.581C102.778 271.646 102.823 271.7 102.883 271.731C102.944 271.762 103.014 271.768 103.078 271.747C103.143 271.727 103.197 271.681 103.228 271.621C103.713 270.76 111.804 265.361 113.979 264.25C126.124 258.131 139.551 252.841 161.54 254.297C161.263 263.601 162.226 272.9 164.404 281.95C153.104 289.087 137.047 299.51 122.524 303.14H122.446ZM165.374 281.324C163.363 272.499 162.475 263.454 162.729 254.406C186.486 255.971 179.036 255.47 186.705 255.971C186.986 260.541 187.409 265.502 188.035 270.056C181.9 271.199 170.867 277.928 165.452 281.324H165.374ZM222.246 299.948C208.427 303.219 198.614 295.675 192.386 282.905C185.5 268.82 186.642 207.644 187.033 192.057L201.338 183.199C220.65 224.906 222.966 228.85 227.301 242.669C232.904 260.275 240.29 295.785 222.324 299.948H222.246ZM234.86 276.003C234.497 267.623 233.206 259.309 231.01 251.214C226.049 231.917 220.681 222.245 205.829 191.024L206.267 190.789C219.382 197.8 230.493 219.569 233.404 234.108C235.001 241.698 238.052 266.519 234.938 276.003H234.86Z" fill="black"/>
</svg>